<svg id="visual" viewBox="0 0 900 600" width="900" height="600" xmlns="http://www.w3.org/2000/svg" xmlns:xlink="http://www.w3.org/1999/xlink" version="1.1"><g transform="translate(439.0342343617101 289.27725539753646)"><path d="M127.7 -224.2C166.4 -198.8 199.2 -166.4 211.8 -127.9C224.4 -89.3 216.7 -44.7 212.1 -2.7C207.5 39.3 205.9 78.7 193.1 116.8C180.3 154.9 156.1 191.8 122.1 221.8C88 251.8 44 274.9 -3 280.1C-50 285.3 -100 272.5 -128.6 239.4C-157.2 206.2 -164.3 152.6 -173.8 109.3C-183.3 66 -195.2 33 -196.6 -0.8C-198 -34.7 -189.1 -69.3 -170.2 -96.4C-151.3 -123.5 -122.5 -142.9 -92.5 -173.3C-62.5 -203.6 -31.3 -244.8 6.6 -256.3C44.5 -267.7 89 -249.5 127.7 -224.2" fill="#8ec5e0"></path></g></svg>